# Blender v3.4.1 OBJ File: 'Rock_01.blend'
# www.blender.org
o Rock_LP.001_Cube.002
v -0.488840 -0.637106 -3.890563
v -0.676428 -0.206239 -3.609261
v -0.786077 -0.592113 -3.241182
v -0.275648 -1.005255 -3.418040
v -0.921982 -0.267093 -3.050889
v -0.994922 -0.202419 -2.661882
v -0.448139 0.388108 -2.253018
v -0.819702 -0.853378 -2.416622
v -0.721482 -0.996459 -2.315259
v -0.547478 -0.278926 -2.222123
v -1.147910 0.676963 -2.921250
v -0.981966 1.166619 -2.847311
v -1.020806 1.049509 -3.048904
v -1.001165 0.404546 -3.163002
v -1.138563 0.370767 -2.851172
v -0.277385 1.928502 -3.712230
v -0.723408 1.404394 -3.316306
v -0.225810 1.995219 -3.606011
v -0.701096 1.492448 -2.639826
v -0.366072 2.003525 -2.877252
v -0.408726 1.812933 -2.406981
v 0.179767 2.008461 -3.416636
v -0.204408 -0.730668 -4.220216
v -0.077191 -0.097668 -4.274730
v -0.061777 -0.350500 -4.309739
v 0.011566 -0.994251 -4.111971
v 0.295177 -0.987037 -4.078097
v 0.922926 -0.999851 -3.511397
v 0.577982 -0.522720 -3.778333
v 0.285892 0.112851 -3.974287
v -0.408717 0.974914 -3.749143
v -0.062494 0.402385 -4.193964
v -0.131527 1.072842 -4.027017
v 0.518666 0.469535 -3.675906
v 0.147054 1.292940 -3.885923
v 0.291159 0.924918 -3.823263
v -0.404292 -0.994215 -2.015744
v -0.035245 -0.603236 -1.746802
v 0.017917 -0.231871 -1.747385
v 0.072388 0.641784 -1.827862
v 0.168436 -1.000480 -1.943703
v 0.173093 -0.640504 -1.753336
v 0.894043 -0.974742 -2.507938
v 0.304567 -0.891357 -1.873865
v 0.488270 -0.467714 -2.109086
v 0.583016 -0.984932 -2.180347
v -0.438819 0.886161 -2.277189
v -0.089517 1.360463 -2.075986
v 0.203098 1.151514 -2.060597
v 0.638998 1.728287 -2.652215
v 0.367942 0.918852 -2.170439
v 0.621902 0.589676 -2.435641
v 0.709005 0.116803 -2.432638
v -0.264078 2.000094 -2.461634
v -0.065552 1.997539 -2.368735
v 0.409018 1.630595 -2.341345
v 0.278289 2.017086 -2.483984
v 0.916751 0.508300 -3.340682
v 1.135391 -0.794077 -3.287819
v 1.085071 -0.995593 -2.738967
v 1.291822 -0.292330 -3.071397
v 1.195394 -0.798171 -2.856340
v 0.949418 1.173981 -3.169715
v 1.022613 0.940638 -2.933745
v 1.202288 0.423714 -3.069819
v 0.561668 1.997460 -3.186505
v 0.722611 1.658706 -3.306285
v 0.531603 1.999932 -2.716141
vt 0.243800 0.156372
vt 0.152196 0.183644
vt 0.198597 0.113533
vt 0.309883 0.035719
vt 0.126324 0.034450
vt 0.314047 0.003911
vt 0.306704 0.150062
vt 0.804372 0.025417
vt 0.687487 0.173432
vt 0.717048 0.062689
vt 0.252782 0.263522
vt 0.304866 0.249098
vt 0.303346 0.299208
vt 0.283686 0.359524
vt 0.314047 0.379392
vt 0.667495 0.270431
vt 0.810820 0.246854
vt 0.159921 0.525936
vt 0.234964 0.425431
vt 0.175073 0.541213
vt 0.294083 0.541615
vt 0.837499 0.466951
vt 0.772955 0.431028
vt 0.668149 0.320457
vt 0.810358 0.674362
vt 0.754573 0.748337
vt 0.734774 0.580688
vt 0.015397 0.222998
vt 0.090764 0.126683
vt 0.022110 0.118784
vt 0.011585 0.063441
vt 0.336877 0.392261
vt 0.407040 0.491808
vt 0.321869 0.456672
vt 0.197609 0.890524
vt 0.072974 0.845077
vt 0.241719 0.760921
vt 0.240843 0.878727
vt 0.468790 0.416120
vt 0.412032 0.317041
vt 0.140202 0.374382
vt 0.036853 0.300365
vt 0.082032 0.401099
vt 0.351765 0.161237
vt 0.402601 0.130450
vt 0.346357 0.271115
vt 0.426835 0.187790
vt 0.801349 0.558301
vt 0.810358 0.539031
vt 0.358820 0.016556
vt 0.445810 0.003911
vt 0.090465 0.572640
vt 0.177987 0.549438
vt 0.896462 0.133296
vt 0.783433 0.144629
vt 0.881419 0.079094
vt 0.044054 0.631445
vt 0.018065 0.697378
vt 0.922652 0.266853
vt 0.912379 0.067777
vt 0.898926 0.388066
vt 0.458395 0.819339
vt 0.523303 0.692258
vt 0.595697 0.734307
vt 0.466314 0.744246
vt 0.792525 0.531208
vt 0.853319 0.500404
vt 0.823425 0.324639
vt 0.888707 0.499695
vt 0.493398 0.514546
vt 0.551084 0.504893
vt 0.497048 0.581682
vt 0.552500 0.654397
vt 0.589997 0.610906
vt 0.551739 0.251931
vt 0.614453 0.264334
vt 0.583852 0.451800
vt 0.003911 0.742335
vt 0.648809 0.460095
vt 0.659672 0.497071
vt 0.540677 0.487525
vt 0.624347 0.376596
vt 0.321869 0.884275
vt 0.331205 0.770323
vt 0.383527 0.996089
vt 0.357880 0.964942
vt 0.430975 0.992501
vt 0.469933 0.258807
vt 0.571803 0.144786
vt 0.528374 0.068666
vt 0.671149 0.609770
vt 0.667495 0.683607
vt 0.702928 0.724304
vt 0.335970 0.559930
vt 0.367129 0.507421
vt 0.337981 0.645564
vt 0.438849 0.521544
vt 0.437939 0.568124
vt 0.735542 0.036436
vt 0.709766 0.391397
vt 0.003911 0.183284
vt 0.361899 0.497071
vt 0.337680 0.351599
vt 0.241719 0.574346
vt 0.896315 0.003911
vt 0.922652 0.019074
vt 0.595697 0.938253
vt 0.520337 0.911551
vt 0.061498 0.567185
vt 0.567924 0.978256
vt 0.502501 0.993558
vt 0.787151 0.737347
vt 0.367050 0.689841
vt 0.517196 0.006606
vn -0.9342 -0.2378 -0.2661
vn -0.8375 -0.0252 -0.5459
vn -0.8503 -0.4324 -0.3002
vn -0.9046 -0.3225 0.2789
vn -0.3496 -0.9253 -0.1471
vn -0.6326 -0.6889 0.3539
vn -0.9327 -0.1154 0.3417
vn -0.4211 -0.6617 0.6204
vn -0.8407 -0.0328 -0.5405
vn -0.9756 -0.0381 0.2163
vn -0.9900 0.1076 0.0916
vn -0.8828 0.3080 -0.3547
vn -0.8698 0.3883 0.3043
vn -0.6610 0.1034 0.7432
vn -0.3598 0.6442 -0.6749
vn -0.8224 0.3786 -0.4247
vn -0.2567 0.9098 -0.3263
vn -0.4920 0.8706 0.0065
vn -0.6579 0.4534 0.6013
vn -0.8019 0.4000 0.4439
vn -0.0319 0.7876 0.6154
vn 0.2521 0.8592 -0.4453
vn -0.1157 0.1473 -0.9823
vn -0.7886 -0.3504 -0.5052
vn -0.4755 -0.3644 -0.8007
vn -0.1746 -0.7972 -0.5779
vn -0.0407 0.0436 -0.9982
vn 0.3885 -0.6469 -0.6562
vn 0.5646 -0.6738 -0.4766
vn 0.6684 0.0798 -0.7395
vn 0.6418 0.1093 -0.7590
vn -0.7332 0.1104 -0.6710
vn -0.0543 0.1724 -0.9835
vn -0.2677 0.2361 -0.9341
vn 0.4431 0.3016 -0.8442
vn 0.6711 0.1246 -0.7308
vn 0.0335 -0.8553 0.5170
vn -0.2325 0.0911 0.9683
vn -0.6722 0.1008 0.7335
vn -0.3020 -0.1397 0.9430
vn 0.5323 -0.6888 0.4921
vn 0.5417 -0.6643 0.5150
vn 0.0460 0.1675 0.9848
vn 0.3394 -0.1492 0.9287
vn -0.2301 0.3012 0.9254
vn 0.7468 0.1085 0.6561
vn 0.7320 0.1265 0.6694
vn 0.7720 0.1300 0.6221
vn -0.3805 0.8460 0.3736
vn -0.6383 0.1160 0.7610
vn 0.2795 0.8242 0.4925
vn 0.5902 0.2707 0.7605
vn 0.4747 0.2826 0.8336
vn 0.6711 0.1327 -0.7294
vn 0.9865 0.1569 -0.0466
vn 0.8569 -0.2872 -0.4281
vn 0.6250 -0.7179 0.3067
vn 0.9356 -0.2347 0.2638
vn 0.9958 0.0708 -0.0586
vn 0.6563 0.1676 -0.7357
vn 0.8929 0.2952 -0.3399
vn 0.7872 0.3997 -0.4697
vn 0.5543 0.7894 -0.2638
vn 0.5740 0.7770 0.2584
vn 0.8304 0.3320 0.4474
vn 0.4270 -0.3941 0.8139
vn 0.7301 0.0817 0.6784
vn 0.8947 0.2444 0.3739
f 5/1/1 2/2/2 3/3/3
f 3/3/3 8/4/4 5/1/1
f 4/5/5 9/6/6 3/3/3
f 9/6/6 8/4/4 3/3/3
f 5/1/1 8/4/4 6/7/7
f 37/8/8 6/9/7 8/10/4
f 14/11/9 15/12/10 11/13/11
f 14/11/9 11/13/11 13/14/12
f 11/13/11 12/15/13 13/14/12
f 5/1/1 6/7/7 15/12/10
f 15/16/10 6/9/7 7/17/14
f 16/18/15 17/19/16 18/20/17
f 20/21/18 13/14/12 12/15/13
f 17/19/16 20/21/18 18/20/17
f 21/22/19 19/23/20 11/24/11
f 20/25/18 55/26/21 22/27/22
f 2/2/2 24/28/23 1/29/24
f 23/30/25 26/31/26 4/5/5
f 25/32/27 27/33/28 23/34/25
f 27/35/28 28/36/29 4/37/5
f 26/38/26 27/35/28 4/37/5
f 29/39/30 25/32/27 30/40/31
f 25/32/27 29/39/30 27/33/28
f 24/28/23 14/11/9 31/41/32
f 32/42/33 24/28/23 31/41/32
f 33/43/34 32/42/33 31/41/32
f 33/43/34 31/41/32 16/18/15
f 33/44/34 35/45/35 32/46/33
f 30/40/31 32/46/33 35/45/35
f 36/47/36 30/40/31 35/45/35
f 16/18/15 31/41/32 17/19/16
f 18/48/17 22/27/22 16/49/15
f 16/50/15 22/51/22 35/45/35
f 4/37/5 41/52/37 37/53/8
f 39/54/38 10/55/39 38/56/40
f 46/57/41 41/52/37 4/37/5
f 4/37/5 43/58/42 46/57/41
f 40/59/43 39/54/38 42/60/44
f 10/55/39 40/59/43 7/17/14
f 7/17/14 40/59/43 48/61/45
f 53/62/46 51/63/47 40/64/43
f 52/65/48 51/63/47 53/62/46
f 20/66/18 21/22/19 54/67/49
f 11/24/11 47/68/50 48/61/45
f 21/22/19 11/24/11 48/61/45
f 55/69/21 21/22/19 48/61/45
f 57/70/51 55/71/21 56/72/52
f 49/73/53 56/72/52 48/74/45
f 58/75/54 29/39/30 30/40/31
f 65/76/55 59/77/56 58/75/54
f 28/36/29 60/78/57 4/37/5
f 62/79/58 60/80/57 28/81/29
f 61/82/59 59/77/56 65/76/55
f 61/83/59 65/84/55 53/62/46
f 61/82/59 62/79/58 59/77/56
f 60/85/57 62/86/58 43/87/42
f 34/88/60 58/75/54 30/40/31
f 63/89/61 34/88/60 36/47/36
f 63/89/61 65/76/55 58/75/54
f 53/62/46 65/84/55 52/65/48
f 67/90/62 36/47/36 35/45/35
f 66/91/63 22/27/22 68/92/64
f 68/92/64 22/27/22 57/93/51
f 67/94/62 66/95/63 63/96/61
f 63/89/61 36/47/36 67/90/62
f 63/96/61 66/95/63 68/97/64
f 68/97/64 57/70/51 50/98/65
f 68/97/64 50/98/65 63/96/61
f 1/29/24 3/3/3 2/2/2
f 1/29/24 4/5/5 3/3/3
f 6/9/7 10/55/39 7/17/14
f 10/55/39 6/9/7 37/8/8
f 37/8/8 8/10/4 9/99/6
f 14/11/9 24/28/23 2/2/2
f 14/11/9 2/2/2 5/1/1
f 31/41/32 14/11/9 13/14/12
f 14/11/9 5/1/1 15/12/10
f 11/24/11 15/16/10 7/17/14
f 11/24/11 19/23/20 12/100/13
f 17/19/16 13/14/12 20/21/18
f 20/66/18 12/100/13 19/23/20
f 21/22/19 20/66/18 19/23/20
f 25/101/27 23/30/25 1/29/24
f 24/28/23 25/101/27 1/29/24
f 23/30/25 4/5/5 1/29/24
f 27/33/28 26/102/26 23/34/25
f 30/40/31 25/32/27 24/103/23
f 32/46/33 30/40/31 24/103/23
f 36/47/36 34/88/60 30/40/31
f 17/19/16 31/41/32 13/14/12
f 33/44/34 16/50/15 35/45/35
f 18/48/17 20/25/18 22/27/22
f 4/37/5 37/53/8 9/104/6
f 10/55/39 37/8/8 38/56/40
f 38/56/40 37/8/8 41/105/37
f 42/60/44 38/56/40 41/105/37
f 38/56/40 42/60/44 39/54/38
f 44/106/66 42/60/44 41/105/37
f 53/62/46 40/64/43 42/107/44
f 53/62/46 42/107/44 45/108/67
f 41/52/37 46/57/41 44/109/66
f 44/110/66 45/108/67 42/107/44
f 46/111/41 45/108/67 44/110/66
f 46/111/41 43/87/42 45/108/67
f 11/24/11 7/17/14 47/68/50
f 40/59/43 10/55/39 39/54/38
f 47/68/50 7/17/14 48/61/45
f 49/73/53 48/74/45 40/64/43
f 50/98/65 49/73/53 51/63/47
f 52/65/48 50/98/65 51/63/47
f 51/63/47 49/73/53 40/64/43
f 54/112/49 55/26/21 20/25/18
f 55/69/21 54/67/49 21/22/19
f 57/93/51 22/27/22 55/26/21
f 48/74/45 56/72/52 55/71/21
f 56/72/52 50/98/65 57/70/51
f 50/98/65 56/72/52 49/73/53
f 29/39/30 28/81/29 27/33/28
f 29/39/30 58/75/54 59/77/56
f 59/77/56 28/81/29 29/39/30
f 60/78/57 43/58/42 4/37/5
f 59/77/56 62/79/58 28/81/29
f 53/62/46 45/108/67 62/86/58
f 62/86/58 61/83/59 53/62/46
f 62/86/58 45/108/67 43/87/42
f 63/89/61 58/75/54 34/88/60
f 64/113/68 50/98/65 52/65/48
f 65/84/55 63/96/61 64/113/68
f 64/113/68 52/65/48 65/84/55
f 35/45/35 22/51/22 67/90/62
f 66/114/63 67/90/62 22/51/22
f 50/98/65 64/113/68 63/96/61
